<svg xmlns="http://www.w3.org/2000/svg" fill="none" viewBox="0 0 136 59">
  <path fill="#000" d="M55.07 33a1.33 1.33 0 0 1-.39.8c-.222.21-.43.437-.625.684-.235.26-.43.482-.586.664a6.33 6.33 0 0 0-.39.508 5.48 5.48 0 0 0-.333.547c-.091.195-.195.443-.312.742a.294.294 0 0 1-.098.117c-.026.027-.04.085-.04.176-.025.287-.194.502-.507.645-.3.143-.67.24-1.113.293a9.27 9.27 0 0 1-1.387.097H48c-.26 0-.534-.006-.82-.02h-.801c-.26 0-.495.027-.703.079a2.068 2.068 0 0 1-.528.078 5.26 5.26 0 0 1-.937-.078 4.587 4.587 0 0 0-.82-.078 4.1 4.1 0 0 0-.743.098l-.625.156a5.484 5.484 0 0 1-.625.156c-.195.052-.41.078-.644.078a.63.63 0 0 1-.234-.039c-.066-.026-.098-.11-.098-.254 0-.156.078-.26.234-.312.17-.052.352-.098.547-.137.208-.04.39-.091.547-.156.17-.065.254-.183.254-.352v-.41c.013-.078.039-.17.078-.273.013-.04.065-.085.156-.137.091-.065.137-.137.137-.215a.321.321 0 0 0-.02-.098v-.097c0-.013.007-.026.02-.04.13-.117.215-.344.254-.683.052-.352.085-.742.098-1.172.013-.43.02-.866.02-1.308 0-.456.019-.86.058-1.211.039-.287.11-.573.215-.86.104-.286.182-.58.234-.879 0-.052.006-.175.02-.37.026-.196.045-.404.058-.626.013-.221.026-.436.04-.644a10.5 10.5 0 0 0 .019-.469c0-.078-.033-.13-.098-.156a.286.286 0 0 0-.176-.059c-.143 0-.306.052-.488.156a9.28 9.28 0 0 0-.527.352c-.183.13-.365.247-.547.352-.183.104-.345.156-.489.156-.104 0-.162-.033-.175-.098a.995.995 0 0 1-.02-.195c0-.156.059-.293.176-.41.117-.13.26-.254.43-.371.169-.118.345-.228.527-.332.195-.118.364-.235.508-.352.065-.065.097-.13.097-.195s.033-.098.098-.098c.026 0 .059.006.098.02h.097c.065 0 .105-.046.117-.137.014-.104.046-.17.098-.195l.293-.098a.454.454 0 0 0 .196-.215c.052-.117.09-.293.117-.527.026-.235.039-.58.039-1.035 0-.443.052-.788.156-1.036a2.49 2.49 0 0 0 .215-.722 9.56 9.56 0 0 0 .058-.684c.013-.247.02-.495.02-.742.013-.26.02-.501.02-.723.012-.234.026-.442.038-.625a8.19 8.19 0 0 1 .118-.8 3.48 3.48 0 0 0 .078-.665c0-.26-.085-.43-.254-.507a1.203 1.203 0 0 0-.508-.118c-.143 0-.3.013-.469.04a5.884 5.884 0 0 1-.449.019c-.143 0-.28-.02-.41-.059a.547.547 0 0 1-.293-.253.717.717 0 0 1 .371-.45c.195-.09.417-.15.664-.175.26-.04.528-.053.801-.04.286 0 .547-.013.781-.039.469-.039.95-.065 1.446-.078.494-.013.99-.039 1.484-.078.3-.026.592-.078.879-.156a3.37 3.37 0 0 1 1.309-.117h.41c.403 0 .768-.052 1.093-.157a3.919 3.919 0 0 1 1.153-.156c.09 0 .15.007.175.02.04.013.066.032.079.058l.039.04c.013.012.039.019.078.019.026 0 .039-.007.039-.02l.039-.039a.128.128 0 0 1 .059-.058.786.786 0 0 1 .214-.02c.105 0 .202.007.293.02h.313c.117 0 .221-.02.312-.059a4.79 4.79 0 0 0 .254-.117c.091-.04.183-.078.274-.117a1.03 1.03 0 0 1 .37-.059c.261 0 .443.065.548.195.117.13.175.293.175.489 0 .195-.039.416-.117.664-.078.234-.17.475-.273.723-.104.234-.215.462-.332.683l-.254.508a2.022 2.022 0 0 0-.137.371.85.85 0 0 1-.137.332 2 2 0 0 1-.234.234.601.601 0 0 0-.195.215c-.04.04-.072.117-.098.235a3.558 3.558 0 0 1-.059.332 1.148 1.148 0 0 1-.117.293.245.245 0 0 1-.215.117.336.336 0 0 1-.273-.117.524.524 0 0 1-.098-.313c0-.26.046-.547.137-.86.091-.325.137-.676.137-1.054a2.16 2.16 0 0 0-.098-.645c-.052-.22-.176-.332-.371-.332a3.07 3.07 0 0 0-.605.079 2.97 2.97 0 0 1-.528.078c-.247 0-.592-.02-1.035-.059-.43-.039-.872-.058-1.328-.058a4.86 4.86 0 0 0-1.055.097 1.234 1.234 0 0 0-.722.41c-.183.209-.332.528-.45.957-.104.417-.182.99-.234 1.72v.233c.013.183-.033.47-.137.86a4.696 4.696 0 0 0-.156 1.25v.293a.66.66 0 0 1-.078.332c-.04.078-.059.11-.059.098 0 .065.02.162.059.293.052.117.078.26.078.43 0 .025-.033.09-.098.195a.548.548 0 0 0-.078.273c0 .065.104.124.313.176.221.052.481.097.781.136l.918.079c.312.013.573.02.781.02.183 0 .371-.027.567-.079.208-.052.449-.078.722-.078.13 0 .254.006.371.02.13.012.248.019.352.019a.594.594 0 0 0 .176-.02c.364-.09.638-.215.82-.37.195-.157.371-.313.527-.47.157-.156.332-.292.528-.41.208-.13.508-.208.898-.234a.363.363 0 0 1 .078.234c0 .144-.065.28-.195.41-.117.13-.221.26-.313.391-.026.026-.052.098-.078.215-.013.117-.039.195-.078.234-.065.065-.156.091-.273.078-.117-.026-.215-.006-.293.06a.317.317 0 0 0-.157.136.49.49 0 0 1-.136.156 5.201 5.201 0 0 0-.938.664c-.221.209-.416.39-.586.547-.169.143-.345.26-.527.352-.182.078-.43.117-.742.117a9.948 9.948 0 0 1-1.758-.157 8.982 8.982 0 0 0-1.602-.156c-.325 0-.533.11-.624.332a1.896 1.896 0 0 0-.137.762c0 .104.006.202.02.293.012.078.019.15.019.215s-.013.156-.04.273a7.95 7.95 0 0 1-.097.352l-.078.351a3.522 3.522 0 0 0-.059.274l-.078.644a41.2 41.2 0 0 1-.097.723c-.026.26-.066.56-.118.898-.039.339-.084.75-.136 1.23-.04.379-.085.691-.137.938a5.544 5.544 0 0 1-.195.703 5.548 5.548 0 0 1-.293.645c-.105.208-.241.469-.41.781.039 0 .071.007.097.02h.098c.17 0 .338-.026.508-.078l.761-.215.235-.156c.065-.04.13-.072.195-.098a.376.376 0 0 1 .195-.059c.04 0 .098.007.176.02.078.013.15.02.215.02.078 0 .13-.014.156-.04.04-.039.098-.058.176-.058.156 0 .462.026.918.078.456.039.996.059 1.621.059.247 0 .482-.007.703-.02a1.96 1.96 0 0 0 .664-.195c.026-.026.065-.072.117-.137.066-.065.13-.137.196-.215.065-.078.13-.15.195-.215a1.75 1.75 0 0 1 .215-.156.428.428 0 0 1 .293-.059.442.442 0 0 0 .293-.097c.104-.078.195-.183.273-.313a1.81 1.81 0 0 1 .313-.41l1.015-1.016c.052-.052.105-.11.157-.175.052-.078.11-.15.175-.215a.937.937 0 0 1 .274-.156c.104-.04.234-.059.39-.059h.176ZM76.535 4.23v-.02c-.221.47-.403.84-.547 1.114-.13.274-.254.502-.37.684-.118.17-.229.319-.333.449l-.39.488c-.079.026-.215.13-.41.313a25.29 25.29 0 0 0-.626.605c-.221.222-.43.423-.625.606-.195.182-.332.286-.41.312a.855.855 0 0 1-.254.352c-.117.117-.26.228-.43.332-.169.104-.344.215-.527.332a8.637 8.637 0 0 0-.507.312c-.26.183-.482.339-.665.47-.169.116-.338.227-.507.331a5.52 5.52 0 0 1-.547.293 9.484 9.484 0 0 1-.743.254 14.72 14.72 0 0 1-1.835.43 11.454 11.454 0 0 1-3.164.117c-.404-.052-.71-.13-.918-.234-.079.078-.118.13-.118.156 0 .052.033.097.098.136a.317.317 0 0 1 .156.137c.052.078.098.176.137.293.04.117.091.215.156.293.13.17.28.32.45.45.182.13.325.273.43.43.064.077.11.194.136.35.039.144.091.268.156.372.065.117.137.221.215.312.091.078.17.17.234.274.248.442.463.852.645 1.23s.404.794.664 1.25c.052.104.124.202.215.293.09.091.162.189.215.293a.996.996 0 0 1 .058.352c.013.13.046.254.098.37.156.443.325.906.508 1.387.195.47.364.931.507 1.387.066.248.111.514.137.8.04.287.091.554.157.802.117.468.227.879.332 1.23.104.352.156.775.156 1.27 0 .221-.007.442-.02.664l-.039.644a1.73 1.73 0 0 1-.195.586c-.091.196-.13.404-.117.625 0 .104.006.209.02.313.012.09.019.182.019.273 0 .274-.04.554-.118.84-.078.273-.169.56-.273.86-.104.286-.215.579-.332.878-.117.287-.221.573-.312.86a3.199 3.199 0 0 1-.254.605 10.01 10.01 0 0 1-.332.645c-.118.208-.222.397-.313.566-.078.17-.117.293-.117.371 0 .065-.033.117-.098.156a1.287 1.287 0 0 1-.215.079 3.312 3.312 0 0 0-.254.097.35.35 0 0 0-.175.117c-.13.183-.228.41-.293.684-.052.26-.143.514-.274.762a5.171 5.171 0 0 0-.136.156 3.187 3.187 0 0 0-.254.293 5.39 5.39 0 0 0-.254.312.523.523 0 0 0-.098.254c0 .065-.032.117-.097.157l-.254.097c-.092.04-.202.085-.332.137a1.317 1.317 0 0 0-.332.215.487.487 0 0 0-.137.176 1.025 1.025 0 0 1-.156.254.986.986 0 0 1-.196.214.442.442 0 0 1-.293.098c-.065 0-.143-.007-.234-.02a1.306 1.306 0 0 0-.215-.02c-.104 0-.189.053-.254.157-.065.104-.15.156-.254.156-.117 0-.202-.02-.254-.058a.497.497 0 0 1-.117-.117 1.28 1.28 0 0 1-.078-.137.33.33 0 0 0-.156-.137 1.218 1.218 0 0 0-.508-.097c-.195 0-.319-.013-.371-.04-.078-.065-.176-.22-.293-.468a3.203 3.203 0 0 0-.41-.703 3.1 3.1 0 0 0-.293-.293 3.491 3.491 0 0 0-.235-.215 2.009 2.009 0 0 1-.214-.254 1.881 1.881 0 0 1-.137-.41c-.026-.104-.078-.176-.156-.215-.066-.04-.111-.11-.137-.215a3.233 3.233 0 0 1-.176-.645 7.836 7.836 0 0 0-.137-.683.75.75 0 0 0-.058-.234 3.546 3.546 0 0 0-.098-.352c-.026-.13-.052-.254-.078-.371a1.685 1.685 0 0 1-.04-.313c0-.364.02-.729.06-1.093.052-.365.078-.703.078-1.016 0-.17.006-.332.02-.488.012-.157.051-.326.116-.508a5.86 5.86 0 0 1 .157-.215c.078-.104.13-.176.156-.215.091-.325.189-.625.293-.898.104-.287.228-.58.37-.88.144-.312.313-.657.509-1.034l.703-1.407a.722.722 0 0 0 .059-.214.473.473 0 0 1 .097-.215.455.455 0 0 1 .098-.059l.195-.078.195-.098c.066-.039.098-.078.098-.117a.32.32 0 0 0-.02-.097v-.098l.176-.195c.117-.13.254-.28.41-.45.157-.182.313-.358.47-.527.168-.17.305-.28.41-.332a.538.538 0 0 1 .312-.059.58.58 0 0 0 .293-.078c.117-.09.221-.221.312-.39.091-.17.176-.287.254-.352a4.57 4.57 0 0 1 .43-.332 7.34 7.34 0 0 0 .469-.351c.156-.118.286-.222.39-.313.118-.104.176-.189.176-.254 0-.17-.058-.371-.176-.605a5.279 5.279 0 0 0-.41-.684 22.925 22.925 0 0 0-.39-.586c-.118-.182-.176-.306-.176-.371a.656.656 0 0 0-.137-.293 5.283 5.283 0 0 0-.254-.312 8.463 8.463 0 0 0-.254-.313.446.446 0 0 1-.097-.254c0-.078-.04-.17-.118-.273a5.96 5.96 0 0 0-.254-.352 23.172 23.172 0 0 1-.253-.332c-.079-.104-.118-.189-.118-.254 0-.26-.15-.56-.449-.898l-.996-1.23c-.013-.014-.02-.033-.02-.06v-.097a.32.32 0 0 0 .02-.098c0-.065-.078-.169-.234-.312a18.31 18.31 0 0 0-.489-.469c-.182-.17-.351-.332-.507-.488-.144-.17-.215-.3-.215-.39-.013-.118-.124-.261-.332-.43-.196-.17-.41-.345-.645-.528a15.28 15.28 0 0 1-.644-.566c-.196-.195-.293-.365-.293-.508.039-.247.11-.39.215-.43.117-.039.292-.09.527-.156.078-.013.182-.052.312-.117s.267-.13.41-.195c.144-.079.294-.144.45-.196.156-.052.3-.078.43-.078a2.2 2.2 0 0 1 .722.137c.273.078.514.176.723.293a.747.747 0 0 1 .156.176c.065.078.117.123.156.136.183.065.39.091.625.078.235-.026.462-.006.684.059.091.026.17.085.234.176a.3.3 0 0 0 .254.137h.078a.322.322 0 0 1 .098-.02c.052 0 .176.02.371.059.195.026.423.058.684.097.273.04.553.078.84.117.299.027.566.04.8.04.326 0 .71-.033 1.153-.098.442-.065.885-.15 1.328-.254a9.732 9.732 0 0 0 1.23-.41c.39-.156.69-.326.899-.508.104-.091.195-.195.273-.313.078-.117.176-.227.293-.332a2.51 2.51 0 0 1 .586-.41c.221-.117.443-.273.664-.468.338-.3.723-.652 1.152-1.055.443-.417.827-.82 1.153-1.211.078-.091.182-.221.312-.39.13-.183.26-.385.39-.606.131-.235.255-.475.372-.723.117-.26.208-.508.273-.742.026-.26.085-.462.176-.606.104-.156.209-.234.313-.234.208 0 .312.228.312.684l-.039.273c-.026.17-.058.365-.098.586a6.874 6.874 0 0 1-.097.586c-.026.182-.046.273-.059.273ZM66.223 26.066a.606.606 0 0 0-.04-.253.43.43 0 0 0-.078-.176 10.898 10.898 0 0 0-.097-.235 3.516 3.516 0 0 1-.078-.37 3.163 3.163 0 0 1-.059-.782 2.926 2.926 0 0 0-.078-.82 5.794 5.794 0 0 0-.313-.918c-.117-.274-.188-.41-.214-.41-.183 0-.326.045-.43.136a2.65 2.65 0 0 1-.215.176 2.25 2.25 0 0 1-.43.176 1.418 1.418 0 0 0-.449.254 9.825 9.825 0 0 0-.605.625c-.248.26-.489.534-.723.82-.234.273-.436.52-.605.742-.17.209-.26.32-.274.332-.195.508-.332.873-.41 1.094-.065.221-.11.39-.137.508a3.56 3.56 0 0 0-.058.332c0 .091-.033.26-.098.508a.762.762 0 0 1-.176.312.476.476 0 0 0-.136.352c0 .09.006.175.02.254.012.078.019.156.019.234 0 .13-.026.254-.078.371-.04.104-.085.209-.137.313l-.157.312a.937.937 0 0 0-.058.332c0 .182.013.417.039.703.039.287.078.586.117.899.04.3.078.586.117.86.052.273.098.474.137.605a.367.367 0 0 1-.02.117v.097c0 .052.04.13.118.235a.89.89 0 0 1 .195.273c.117.339.26.651.43.938.169.273.338.514.508.722.182.209.358.371.527.489.17.117.312.175.43.175.09 0 .214-.084.37-.254.17-.182.346-.397.528-.644.195-.26.378-.527.547-.8.182-.287.332-.541.45-.763.181-.325.364-.696.546-1.113a4.04 4.04 0 0 0 .332-1.23c0-.078.02-.137.059-.176l.097-.098c.065-.26.098-.488.098-.683 0-.209.013-.424.039-.645.013-.286.045-.599.098-.937.052-.352.097-.703.136-1.055.052-.352.098-.69.137-1.016a7.86 7.86 0 0 0 .059-.918Zm19.12 7.07c.144.144.216.274.216.391a.367.367 0 0 1-.098.235c-.052.065-.117.13-.195.195-.079.052-.157.11-.235.176a.433.433 0 0 0-.137.176c-.117.286-.319.605-.605.957-.273.338-.553.696-.84 1.074-.156.208-.338.469-.547.781-.195.3-.403.58-.625.84-.026.026-.078.046-.156.059-.078.026-.124.052-.137.078-.104.26-.24.508-.41.742-.156.234-.39.351-.703.351-.377 0-.664-.09-.86-.273a1.36 1.36 0 0 1-.41-.605 2.73 2.73 0 0 1-.136-.723v-.586c0-.469.039-.983.117-1.543.078-.56.163-1.113.254-1.66a50.41 50.41 0 0 0 .273-1.563 8.71 8.71 0 0 0 .118-1.289h-.079c-.104 0-.24.117-.41.352a14.42 14.42 0 0 0-.586.84c-.208.338-.436.703-.683 1.093-.235.391-.469.75-.703 1.075a7.43 7.43 0 0 1-.43.507c-.143.17-.287.32-.43.45-.13.13-.24.234-.332.312-.09.078-.136.11-.136.098v.097c.013.04.019.072.019.098 0 .091-.059.195-.176.313a4.251 4.251 0 0 1-.351.312c-.13.091-.254.17-.371.234-.105.066-.157.105-.157.118v.097a.32.32 0 0 1 .02.098c0 .052-.046.085-.137.098-.078.013-.13.039-.156.078-.04.104-.078.228-.117.37-.026.131-.13.203-.313.216-.09 0-.189.058-.293.175a9.405 9.405 0 0 0-.312.372 5.134 5.134 0 0 1-.313.39c-.09.13-.175.209-.254.235-.26.078-.462.117-.605.117a.81.81 0 0 1-.528-.215 2.474 2.474 0 0 1-.41-.488 3.382 3.382 0 0 1-.293-.508c-.065-.17-.097-.287-.097-.352 0-.351.013-.735.039-1.152.026-.417.058-.827.098-1.23.052-.417.117-.801.195-1.153s.176-.638.293-.86c.065-.143.097-.344.097-.605a1.8 1.8 0 0 0-.02-.273v-.313c0-.156.014-.306.04-.449.039-.156.078-.332.117-.527.052-.196.104-.423.156-.684.066-.26.124-.573.176-.937.026-.248.046-.495.059-.742.026-.248.058-.489.097-.723.066-.365.137-.755.215-1.172.091-.417.137-.853.137-1.309v-.215a1.538 1.538 0 0 0-.078-.488c-.013-.065-.04-.097-.078-.097-.104 0-.209.058-.313.175a3.75 3.75 0 0 0-.312.41l-.313.47a1.372 1.372 0 0 1-.273.35c-.13.118-.3.216-.508.294-.195.078-.365.17-.508.273a.35.35 0 0 0-.117.176c-.026.065-.059.13-.098.195a.564.564 0 0 1-.175.176c-.066.052-.163.078-.293.078a.643.643 0 0 1-.157-.02c-.039-.025-.058-.09-.058-.195a.82.82 0 0 1 .273-.625c.196-.182.352-.351.469-.507a.262.262 0 0 0 .058-.215.32.32 0 0 1 .098-.235c.065-.065.17-.143.313-.234.143-.091.28-.202.41-.332a.336.336 0 0 0 .078-.215c0-.091.02-.17.058-.234.079-.078.209-.163.391-.254.196-.091.358-.195.488-.313.04-.039.092-.104.157-.195.065-.104.136-.202.214-.293.079-.104.157-.195.235-.273a.422.422 0 0 1 .273-.118c.065 0 .137-.052.215-.156.091-.117.182-.247.274-.39.09-.157.182-.306.273-.45.091-.143.176-.247.254-.312a.897.897 0 0 1 .371-.176 1.6 1.6 0 0 1 .508-.078c.208 0 .39.039.547.117.156.065.234.202.234.41 0 .091-.013.209-.039.352a4.907 4.907 0 0 1-.058.43l-.079.43c-.013.13-.02.227-.02.292a.76.76 0 0 0 .04.274.448.448 0 0 1 .059.234c0 .052-.04.163-.118.332-.078.17-.162.378-.254.625-.078.234-.156.501-.234.8a3.254 3.254 0 0 0-.117.86c0 .195.006.378.02.547.012.17.019.339.019.508 0 .312-.046.605-.137.879-.013.026-.045.052-.097.078-.04.013-.06.052-.06.117 0 .052.007.13.02.234.014.092.02.196.02.313 0 .143-.02.24-.059.293a.295.295 0 0 1-.117.098.49.49 0 0 0-.117.058c-.026.026-.04.091-.04.195 0 .118.02.235.06.352.052.104.078.26.078.469 0 .182-.033.397-.098.644-.065.248-.137.534-.215.86-.078.325-.15.69-.215 1.093-.065.391-.097.82-.097 1.29 0 .403.013.735.039.996.039.247.11.37.215.37.195 0 .423-.11.683-.331a7.24 7.24 0 0 0 .86-.899c.299-.377.599-.788.898-1.23.313-.456.599-.905.86-1.348.273-.456.507-.872.703-1.25.208-.39.364-.703.468-.937.3-.717.58-1.42.84-2.11.273-.69.58-1.445.918-2.265.026-.105.04-.209.04-.313v-.801c0-.286.038-.501.116-.644a.843.843 0 0 1 .332-.313c.144-.078.3-.136.47-.175.168-.053.331-.13.487-.235.183-.117.358-.254.528-.41l.488-.45c.17-.142.332-.266.488-.37.17-.117.352-.19.547-.215a.41.41 0 0 1-.059.215 4.378 4.378 0 0 0-.136.195 1.819 1.819 0 0 0-.156.234.904.904 0 0 0-.098.371 4.643 4.643 0 0 1-.098.508c-.039.209-.104.43-.195.664-.013.026-.04.04-.078.04-.04-.014-.059.019-.059.097-.013.156-.032.423-.058.8-.026.378-.059.743-.098 1.095a2.415 2.415 0 0 1-.234.78c-.13.261-.202.541-.215.84 0 .066.006.105.02.118.025.013.038.045.038.098a.779.779 0 0 1-.175.468c-.105.143-.157.267-.157.371 0 .17.02.352.059.547.052.195.078.384.078.567 0 .221-.039.436-.117.644a3.08 3.08 0 0 0-.176.664 3.593 3.593 0 0 0-.078.742c0 .248-.02.489-.059.723-.078.482-.169.95-.273 1.406-.104.443-.156.814-.156 1.114 0 .156.02.306.058.449.04.13.078.247.117.351.053.105.092.19.118.254l.058.098a.901.901 0 0 0 .352-.098c.143-.078.28-.163.41-.254.13-.09.24-.182.332-.273.104-.091.156-.156.156-.195a.173.173 0 0 0-.02-.078v-.098c0-.078.053-.124.157-.137.104-.013.156-.059.156-.137a.321.321 0 0 0-.02-.097v-.098c0-.052.033-.124.098-.215l.235-.273c.09-.104.175-.189.254-.254l.156-.156a.268.268 0 0 0 .058-.137c.026-.065.059-.13.098-.195a.626.626 0 0 1 .215-.196.749.749 0 0 1 .371-.078c.026 0 .046.007.059.02h.078Zm11.934-10.331v.058c0 .104-.071.287-.215.547a7.01 7.01 0 0 1-.468.762 5.804 5.804 0 0 1-.567.664c-.182.195-.332.293-.449.293a.68.68 0 0 1-.469-.156 1.563 1.563 0 0 1-.293-.41 8.253 8.253 0 0 0-.254-.47 1.194 1.194 0 0 0-.331-.429 3.516 3.516 0 0 1-.196-.117 3.294 3.294 0 0 0-.312-.195 3.8 3.8 0 0 0-.313-.176.614.614 0 0 0-.215-.078c-.234 0-.43.045-.586.136a1.257 1.257 0 0 0-.37.371 3.066 3.066 0 0 0-.255.508c-.078.183-.162.371-.253.567a3.008 3.008 0 0 1-.333.527c-.156.195-.24.39-.254.586v.098a.32.32 0 0 1 .02.097c0 .013-.046.072-.137.176-.078.104-.13.195-.156.273a2.7 2.7 0 0 0-.156.586c-.026.235-.059.482-.098.743-.026.26-.058.52-.098.78a7.327 7.327 0 0 1-.097.665 8.367 8.367 0 0 1-.098.332 7.502 7.502 0 0 0-.156.547c-.052.208-.104.43-.156.664a3.85 3.85 0 0 0-.059.644c0 .196.007.385.02.567.013.17.02.325.02.469 0 .26-.027.547-.079.859-.039.3-.058.612-.058.938 0 .195.019.397.058.605.052.195.078.39.078.586 0 .065-.006.13-.02.195a.722.722 0 0 0-.019.176c0 .039.013.085.04.137 0 .026.032.071.097.136.065.052.143.111.234.176.091.065.189.124.293.176a.658.658 0 0 0 .293.078c.13 0 .3-.065.508-.195.208-.143.423-.306.644-.489.222-.195.43-.39.626-.585a191.458 191.458 0 0 1 .996-.918c.169-.157.351-.345.547-.567.013-.026.058-.052.136-.078.078-.026.124-.052.137-.078.078-.156.13-.254.156-.293.04-.04.13-.137.274-.293.078-.078.162-.189.254-.332.104-.143.214-.286.331-.43.13-.156.26-.286.391-.39a.727.727 0 0 1 .43-.157c.052 0 .123.02.215.059.104.04.156.13.156.273a.6.6 0 0 1-.117.371 1.559 1.559 0 0 1-.293.294 7.398 7.398 0 0 1-.332.234 1.919 1.919 0 0 0-.293.234 1.002 1.002 0 0 0-.235.371 1.53 1.53 0 0 1-.195.352c-.234.3-.52.592-.86.879a9.543 9.543 0 0 0-.898.86c-.247.26-.475.526-.683.8-.196.26-.45.488-.762.684a.762.762 0 0 1-.234.058.463.463 0 0 0-.215.078 1.214 1.214 0 0 0-.313.39.797.797 0 0 1-.273.333c-.104.078-.287.15-.547.215a4.22 4.22 0 0 0-.605.234c-.04.013-.072.059-.098.137-.013.078-.033.124-.059.137a.718.718 0 0 1-.176.039 1.914 1.914 0 0 1-.312.058l-.313.04a2.08 2.08 0 0 1-.214.019.613.613 0 0 1-.215-.078 5.422 5.422 0 0 1-.293-.137 4.367 4.367 0 0 1-.254-.156l-.117-.059a.669.669 0 0 1-.176-.39c0-.144-.04-.306-.117-.489-.183-.39-.332-.748-.45-1.074a3.794 3.794 0 0 1-.156-1.152v-.313l.04-.41c.025-.143.058-.28.097-.41a.869.869 0 0 1 .176-.293.86.86 0 0 0-.078-.352 1 1 0 0 1-.079-.37c.014-.118.04-.242.079-.372s.065-.254.078-.37c.013-.222.032-.463.058-.724.026-.273.059-.546.098-.82.04-.273.091-.54.156-.8.078-.261.17-.495.274-.704a.834.834 0 0 0 .039-.293v-.195c0-.182.045-.384.137-.606a8.16 8.16 0 0 1 .351-.664c.143-.221.287-.43.43-.625.143-.208.26-.39.351-.547a.695.695 0 0 0 .059-.195.621.621 0 0 1 .078-.234c.026-.04.072-.065.137-.078.078-.013.13-.04.156-.078.221-.274.45-.547.684-.82a7.72 7.72 0 0 0 .644-.919 1.73 1.73 0 0 0 .137-.312c.039-.13.084-.254.136-.371.053-.117.118-.222.196-.313a.682.682 0 0 1 .39-.176c.013 0 .053-.032.118-.097l.254-.254.292-.293c.092-.104.163-.182.215-.235.157-.143.32-.306.489-.488.182-.182.37-.358.566-.527.195-.17.384-.306.567-.41.195-.117.377-.176.546-.176.326 0 .586.104.782.312l.703.704c.052.065.136.15.254.253.117.105.227.222.332.352.117.13.215.26.293.39.09.13.136.241.136.333Zm13.887 10.058a.43.43 0 0 1 .137.313.858.858 0 0 1-.176.527 2.86 2.86 0 0 1-.449.43 12.7 12.7 0 0 1-.567.41 3.374 3.374 0 0 0-.547.508c-.221.26-.481.56-.781.898a4.696 4.696 0 0 0-.683.996c-.026.065-.111.19-.254.371-.13.183-.293.378-.489.586-.182.209-.39.391-.625.547-.221.157-.436.235-.644.235-.143 0-.287-.026-.43-.078a1.384 1.384 0 0 1-.371-.176 1.056 1.056 0 0 1-.293-.235.366.366 0 0 1-.097-.234c0-.117.045-.234.136-.352.104-.117.157-.3.157-.547 0-.065-.014-.11-.04-.136a.935.935 0 0 0-.058-.098 1.349 1.349 0 0 1-.039-.156 1.761 1.761 0 0 1-.02-.313c0-.143.02-.293.059-.449l.156-.508a4.74 4.74 0 0 0 .156-.527 1.92 1.92 0 0 0 .078-.527.368.368 0 0 0-.019-.117v-.137c0-.078.019-.196.059-.352.039-.156.084-.325.136-.508.052-.182.098-.377.137-.586.039-.22.059-.43.059-.625 0-.247-.026-.455-.079-.625a1.01 1.01 0 0 0-.371.235 1.882 1.882 0 0 0-.293.332 29.31 29.31 0 0 0-.254.39c-.078.13-.162.254-.253.372a1.91 1.91 0 0 1-.274.254c-.13.104-.267.214-.41.331a4.67 4.67 0 0 0-.352.352c-.104.104-.156.189-.156.254 0 .026.007.059.02.098a.315.315 0 0 1 .019.097c0 .04-.032.098-.097.176l-.215.254-.196.234c-.065.065-.097.111-.097.137-.013.143-.124.28-.332.41a2.005 2.005 0 0 0-.547.45 2.13 2.13 0 0 0-.293.41l-.215.39c-.065.117-.13.215-.195.293a.321.321 0 0 1-.235.098.818.818 0 0 1-.136-.02.577.577 0 0 0-.137-.02c-.091 0-.15.06-.176.177a1.093 1.093 0 0 1-.058.273c-.105.17-.228.3-.372.39a6.39 6.39 0 0 0-.507.352.601.601 0 0 0-.196.215.66.66 0 0 1-.117.234.532.532 0 0 1-.254.157c-.104.052-.273.078-.508.078-.13 0-.254-.013-.37-.04-.118-.025-.177-.064-.177-.117 0-.026.007-.058.02-.097a.322.322 0 0 0 .02-.098c0-.013-.026-.039-.078-.078a1.954 1.954 0 0 1-.196-.176.901.901 0 0 1-.176-.273 1.261 1.261 0 0 1-.078-.469c0-.208.02-.423.059-.644.052-.235.104-.463.156-.684.065-.221.124-.43.176-.625a5.83 5.83 0 0 0 .117-.586c.052-.43.078-.866.078-1.309 0-.442.072-.84.215-1.19a4.77 4.77 0 0 0 .215-.528 6.56 6.56 0 0 0 .215-.782 24.89 24.89 0 0 1 .273-1.386c.052-.196.11-.365.176-.508a.67.67 0 0 1 .137-.137.857.857 0 0 0 .156-.156.8.8 0 0 0 .039-.254.963.963 0 0 1 .098-.312.443.443 0 0 1 .156-.157c.078-.065.124-.117.137-.156.065-.117.11-.26.136-.43.026-.169.078-.312.157-.43a.57.57 0 0 1 .273-.195.866.866 0 0 0 .312-.254.843.843 0 0 0 .137-.293c.039-.104.085-.195.137-.273a7.27 7.27 0 0 0 .352-.41c.104-.13.195-.248.273-.352.091-.104.176-.201.254-.293.078-.09.176-.182.293-.273a1.22 1.22 0 0 0 .273-.293 1.24 1.24 0 0 1 .313-.293 8.01 8.01 0 0 1 .273-.098.981.981 0 0 0 .313-.175.425.425 0 0 0 .078-.157c.026-.09.052-.143.078-.156a3.26 3.26 0 0 1 .254-.098.856.856 0 0 0 .312-.195c.144-.13.254-.26.332-.39.078-.13.17-.241.274-.333a.857.857 0 0 1 .351-.156c.131-.026.248-.071.352-.137.195-.104.391-.24.586-.41.208-.182.423-.358.644-.527a3.73 3.73 0 0 1 .684-.45c.247-.13.501-.195.762-.195.169 0 .338-.013.508-.039.182-.039.351-.058.507-.058a.95.95 0 0 1 .391.078c.117.052.176.163.176.332a8.92 8.92 0 0 1-.176 1.66c-.117.612-.247 1.27-.391 1.973a66.15 66.15 0 0 0-.371 2.226 18.343 18.343 0 0 0-.156 2.422c0 .026.007.065.02.117.026.052.039.13.039.235 0 .078-.02.175-.059.293a4.543 4.543 0 0 1-.098.332l-.117.312a1.15 1.15 0 0 0-.039.274v.39c.013.13.02.248.02.352 0 .221-.026.469-.079.742-.052.273-.117.56-.195.86-.065.286-.124.572-.176.859a4.5 4.5 0 0 0-.078.8c0 .13.007.255.02.372.013.104.039.208.078.312.169-.078.306-.176.41-.293.117-.117.221-.247.313-.39.104-.157.208-.32.312-.489.104-.182.241-.37.41-.566.065-.078.156-.182.274-.313.117-.13.241-.254.371-.37.13-.118.267-.222.41-.313a.768.768 0 0 1 .41-.137c.091 0 .189.04.293.117Zm-4.531-10.058h-.117a.324.324 0 0 0-.098-.02c-.195 0-.345.059-.449.176-.091.104-.17.156-.235.156h-.097a.368.368 0 0 0-.117-.02c-.066 0-.098.04-.098.118 0 .065-.033.117-.098.156a.26.26 0 0 1-.215.098c-.091-.013-.162.006-.214.058a1.06 1.06 0 0 0-.196.313c-.052.13-.137.267-.254.41a1.582 1.582 0 0 1-.39.313 1.466 1.466 0 0 0-.332.273c-.026.052-.052.13-.078.234a.718.718 0 0 1-.059.215 32.22 32.22 0 0 1-.391.664c-.143.248-.299.508-.468.781-.17.274-.339.54-.508.801-.157.248-.287.469-.391.664a1.882 1.882 0 0 0-.215.645c-.039.247-.071.508-.097.781l-.039.762c-.013.234-.039.43-.079.586-.247.86-.481 1.725-.703 2.597a10.62 10.62 0 0 0-.312 2.5c.273-.039.482-.143.625-.312a2.23 2.23 0 0 0 .371-.606c.091-.22.176-.436.254-.644a.989.989 0 0 1 .332-.469c.104-.065.208-.156.312-.273.118-.117.215-.228.293-.332a.317.317 0 0 0 .059-.196c0-.09.026-.169.078-.234a5.25 5.25 0 0 1 .273-.293l.352-.313c.117-.104.221-.201.313-.292.104-.105.182-.19.234-.254.052-.065.078-.163.078-.293a1.21 1.21 0 0 1 .059-.313c.13-.247.273-.469.429-.664.157-.208.306-.423.45-.644.234-.365.429-.723.585-1.075.17-.351.313-.71.43-1.074.117-.364.222-.736.313-1.113.091-.39.182-.807.273-1.25.052-.26.111-.54.176-.84.078-.3.117-.605.117-.918 0-.326-.052-.612-.156-.86Zm12.226-.742a7.268 7.268 0 0 1-.195.585 4.65 4.65 0 0 0-.234.86 6.41 6.41 0 0 0-.098 1.308c.013.43 0 .827-.039 1.192-.065.495-.163.976-.293 1.445-.117.469-.215.95-.293 1.445-.078.456-.143.795-.195 1.016a11.64 11.64 0 0 1-.117.586c-.027.17-.046.352-.059.547-.013.195-.02.482-.02.86v.39c.013.104.02.208.02.312 0 .183-.039.358-.117.528a1.121 1.121 0 0 0-.117.508c0 .143.013.292.039.449.026.156.039.312.039.468 0 .144-.02.254-.059.333a.35.35 0 0 1-.117.175.524.524 0 0 1-.137.098.26.26 0 0 0-.117.098 2.713 2.713 0 0 0-.176.41c-.052.17-.091.273-.117.312a.477.477 0 0 1-.273.157.844.844 0 0 0-.313.136 5.278 5.278 0 0 0-.664.664c-.234.274-.469.554-.703.84-.221.274-.43.508-.625.703-.195.209-.345.313-.449.313a.28.28 0 0 1-.157-.04c-.026-.012-.039-.064-.039-.156 0-.117.033-.22.098-.312.065-.091.137-.189.215-.293.091-.091.176-.189.254-.293.091-.117.156-.247.195-.39v-.02c0-.26.046-.469.137-.625.091-.156.137-.267.137-.332 0-.078-.027-.13-.079-.156-.052-.026-.078-.072-.078-.137a.84.84 0 0 1 .039-.215c.039-.104.078-.215.118-.332a3.54 3.54 0 0 0 .097-.352.942.942 0 0 0 .059-.273c0-.156-.02-.286-.059-.39a1.71 1.71 0 0 1-.039-.372.83.83 0 0 1 .176-.508c.13-.156.195-.286.195-.39a.641.641 0 0 1-.019-.156v-.176c0-.326.032-.645.097-.957.078-.313.163-.606.254-.88.091-.273.17-.52.235-.741.078-.222.117-.397.117-.528a.334.334 0 0 0-.02-.136v-.078a1.25 1.25 0 0 0-.078-.43 1.628 1.628 0 0 1-.058-.43c0-.13.039-.273.117-.43a1.6 1.6 0 0 0 .176-.527c.052-.3.078-.65.078-1.055 0-.416.019-.794.058-1.132a2.83 2.83 0 0 1 .176-.762c.091-.235.137-.371.137-.41a1.377 1.377 0 0 0-.235-.313c-.091-.104-.169-.156-.234-.156a.443.443 0 0 0-.293.117 2.004 2.004 0 0 0-.273.293 3.9 3.9 0 0 0-.235.352c-.078.117-.15.215-.215.293-.104.13-.267.3-.488.508l-.527.527a1.127 1.127 0 0 0-.215.39c-.052.144-.169.215-.352.215a.429.429 0 0 1-.136-.02c-.026-.025-.039-.084-.039-.175 0-.117.026-.228.078-.332.065-.117.136-.228.215-.332.078-.117.156-.221.234-.313.091-.104.163-.208.215-.312.104-.208.273-.462.508-.762.234-.312.507-.644.82-.996.325-.351.683-.71 1.074-1.074.404-.378.82-.749 1.25-1.113.13-.105.221-.19.274-.254a1.14 1.14 0 0 1 .156-.137c.039-.04.078-.059.117-.059a.683.683 0 0 1 .195-.02c.43 0 .716.073.86.216.143.13.215.325.215.586 0 .078-.007.162-.02.254a2.923 2.923 0 0 1-.059.293Zm7.442.273c-.013.078-.052.117-.117.117h-.059c-.078 0-.117.04-.117.117v.117a.173.173 0 0 1 .019.079c0 .065-.058.195-.175.39a7.46 7.46 0 0 1-1.29 1.524 5.283 5.283 0 0 1-1.015.722 29.09 29.09 0 0 0-.703.41 1.797 1.797 0 0 1-.879.215h-.098a.173.173 0 0 0-.078-.02 3.06 3.06 0 0 1-.176-.019 34.108 34.108 0 0 0-.722-.078.868.868 0 0 1-.274-.058c-.117-.04-.247-.17-.39-.391a3.356 3.356 0 0 0-.489-.625 1.656 1.656 0 0 0-.293-.234 5.834 5.834 0 0 1-.293-.235 3.498 3.498 0 0 1-.214-.234.573.573 0 0 1-.079-.293c.039 0 .144-.104.313-.313a51.382 51.382 0 0 1 1.211-1.426c.195-.22.325-.332.39-.332.053 0 .098-.038.137-.117.052-.078.098-.162.137-.254a2.02 2.02 0 0 1 .137-.293.503.503 0 0 1 .175-.214c.17.013.287.097.352.254.065.156.111.345.137.566.026.221.045.469.058.742.026.26.078.501.156.723.079.221.209.41.391.566.182.143.449.215.801.215a1.1 1.1 0 0 0 .215-.02.827.827 0 0 0 .234-.078 1.92 1.92 0 0 0 .274-.175 8.82 8.82 0 0 0 .429-.313 2.04 2.04 0 0 0 .41-.41c.131-.17.254-.332.372-.488.13-.17.273-.32.429-.45a1.18 1.18 0 0 1 .547-.253l.098.195a.448.448 0 0 1 .058.234.172.172 0 0 1-.019.078v.059Zm9.062 1.836a5.91 5.91 0 0 1-.215 1.348c-.104.403-.24.774-.41 1.113a6.48 6.48 0 0 1-.527.937 18.3 18.3 0 0 1-.606.84c-.13.17-.234.32-.312.45a3.258 3.258 0 0 1-.234.312c-.079.091-.163.17-.254.234a1.096 1.096 0 0 1-.371.157 17.73 17.73 0 0 0-.372.097.679.679 0 0 0-.351.195.424.424 0 0 0-.078.157.419.419 0 0 1-.078.136.867.867 0 0 1-.371.157.688.688 0 0 0-.352.136c-.104.092-.176.17-.215.235a.632.632 0 0 1-.215.195 1.382 1.382 0 0 1-.371.156c-.13.026-.254.072-.371.137a.736.736 0 0 0-.215.234.557.557 0 0 1-.215.215 6.259 6.259 0 0 1-.527.332.852.852 0 0 0-.351.293c-.079.13-.137.32-.176.567-.039.247-.059.625-.059 1.133 0 .299.007.585.02.859.026.273.052.475.078.605.013.04.052.13.117.274.078.13.169.273.273.43.118.156.248.299.391.43a.7.7 0 0 0 .449.175.891.891 0 0 0 .625-.254c.183-.182.384-.339.606-.469l.664-.41c.273-.182.495-.384.664-.605.052-.078.117-.183.195-.313.078-.143.163-.28.254-.41a1.76 1.76 0 0 1 .332-.352.674.674 0 0 1 .43-.156c.065 0 .15.02.254.059a1.139 1.139 0 0 1-.215.605 3.051 3.051 0 0 1-.41.508l-.391.39c-.117.118-.176.215-.176.294v.117c.013.039.02.071.02.097 0 .066-.078.118-.235.157a.727.727 0 0 0-.351.156.738.738 0 0 0-.156.234.414.414 0 0 1-.137.196 3.473 3.473 0 0 1-.449.312 3.47 3.47 0 0 0-.43.293 7.06 7.06 0 0 0-.449.45 7.653 7.653 0 0 1-.43.468 2.87 2.87 0 0 1-.43.39c-.13.105-.253.157-.371.157a.678.678 0 0 1-.214-.04 1.01 1.01 0 0 0-.196-.019.185.185 0 0 0-.156.078.185.185 0 0 1-.156.079c-.117 0-.254-.059-.41-.176a3.92 3.92 0 0 0-.391-.234 2.788 2.788 0 0 0-.645-.137c-.247-.013-.423-.059-.527-.137-.091-.078-.163-.221-.215-.43a2.08 2.08 0 0 0-.215-.605 1.796 1.796 0 0 0-.351-.45c-.13-.117-.209-.208-.235-.273a1.494 1.494 0 0 1-.058-.312v-.43a4.97 4.97 0 0 0-.02-.45 1.77 1.77 0 0 0-.078-.41.188.188 0 0 0-.078-.097c-.039-.039-.059-.11-.059-.215 0 .013.02-.013.059-.078a.38.38 0 0 0 .078-.195c.065-1.029.156-2.005.274-2.93.13-.937.293-1.79.488-2.559.195-.78.43-1.458.703-2.03.286-.587.625-1.049 1.016-1.387a.261.261 0 0 1 .215-.06.362.362 0 0 0 .234-.077.269.269 0 0 0 .058-.137.438.438 0 0 1 .079-.156.334.334 0 0 1 .214-.078.29.29 0 0 0 .215-.078.89.89 0 0 0 .157-.157 4.28 4.28 0 0 0 .195-.254c.065-.09.13-.175.195-.253a.69.69 0 0 1 .195-.196 1.48 1.48 0 0 1 .567-.215c.221-.039.423-.117.605-.234a.604.604 0 0 0 .176-.156l.195-.235c.079-.09.15-.169.215-.234s.13-.098.196-.098c.026 0 .058.007.097.02h.098c.026 0 .124-.078.293-.235a4.4 4.4 0 0 1 .488-.37c.039-.027.059-.072.059-.137.013-.078.039-.13.078-.157a.71.71 0 0 1 .312-.117c.144-.039.28-.097.411-.176a.927.927 0 0 0 .234-.195c.052-.065.169-.098.351-.098.469.04.827.124 1.075.254.247.13.416.32.508.567.104.234.156.54.156.918.013.364.019.807.019 1.328Zm-2.773 0a.594.594 0 0 0-.156-.137.865.865 0 0 1-.137-.156.378.378 0 0 1-.059-.195 1.1 1.1 0 0 0-.019-.215.297.297 0 0 0-.078-.157c-.026-.039-.085-.058-.176-.058-.078 0-.195.045-.352.137a5.263 5.263 0 0 0-.468.293 13.58 13.58 0 0 0-.45.351 2.148 2.148 0 0 0-.293.274 3.193 3.193 0 0 0-.273.43c-.104.195-.215.396-.332.605a9.72 9.72 0 0 1-.293.547c-.091.156-.143.234-.156.234v.098a.318.318 0 0 1 .019.097c0 .078-.052.15-.156.215-.104.052-.156.163-.156.332 0 .065.006.143.019.235.013.078.02.15.02.214a.478.478 0 0 1-.137.313.863.863 0 0 0-.156.332 39.27 39.27 0 0 0-.352 1.348 5.712 5.712 0 0 0-.176 1.386c0 .143.013.267.039.371.04.092.144.137.313.137.117 0 .202-.02.254-.058a.66.66 0 0 0 .156-.176c.039-.078.072-.15.098-.215a.457.457 0 0 1 .097-.156c.17-.157.365-.32.586-.489.222-.169.443-.345.664-.527.235-.195.456-.39.665-.586.221-.195.41-.39.566-.586.039-.065.078-.17.117-.312.039-.157.098-.3.176-.43.195-.339.345-.775.449-1.309.117-.534.176-1.12.176-1.757 0-.066-.007-.137-.02-.215a1.1 1.1 0 0 0-.019-.215ZM6.327 15.2 19 22.8l19-11.4L19 0 0 11.4h19v3.8H6.327ZM0 15.2v15.2l3.8-4.218V17.48L0 15.2ZM19 38l-9.5-5.7-3.8-2.28v-11.4L19 26.6l13.3-7.98v11.4L19 38Z"/>
</svg>
