<svg xmlns="http://www.w3.org/2000/svg" aria-hidden="true" overflow="hidden" style="position:absolute;width:0;height:0">
  <defs>
    <symbol id="icon-twitter" viewBox="0 0 32 32">
      <path d="M16-.034C7.159-.034-.035 7.158-.035 16S7.159 32.034 16 32.034 32.035 24.842 32.035 16 24.841-.034 16-.034zm0 31C7.748 30.966 1.035 24.252 1.035 16S7.748 1.034 16 1.034 30.965 7.748 30.965 16c0 8.252-6.713 14.966-14.965 14.966z"/>
      <path d="M24.794 11.046c.111-.205.203-.421.273-.643a.535.535 0 0 0-.782-.621l.002-.001a6.052 6.052 0 0 1-1.647.673 3.82 3.82 0 0 0-6.376 2.995v-.008a8.831 8.831 0 0 1-5.722-3.163l-.012-.016a.534.534 0 0 0-.875.068l-.001.002a3.767 3.767 0 0 0-.518 1.919c0 .66.168 1.28.462 1.821l-.01-.02a.632.632 0 0 0-.217.079l.003-.002a.571.571 0 0 0-.264.482c0 1.135.504 2.177 1.319 2.885l-.035.035a.533.533 0 0 0-.107.522l-.001-.004a3.836 3.836 0 0 0 2.16 2.356l.025.009a6.044 6.044 0 0 1-2.689.621 6.14 6.14 0 0 1-.747-.045l.029.003a.545.545 0 0 0-.564.348l-.001.004a.535.535 0 0 0 .212.629l.002.001a9.745 9.745 0 0 0 5.316 1.559h.004c6.18 0 9.873-5.02 9.873-9.873l-.001-.165a7.205 7.205 0 0 0 1.526-1.634l.016-.025a.535.535 0 0 0-.655-.789l.003-.001zm-1.745 1.755a.534.534 0 0 0-.222.463v-.001c.007.132.01.266.01.398 0 4.328-3.293 8.805-8.805 8.805a8.787 8.787 0 0 1-2.887-.488 7.068 7.068 0 0 0 3.059-1.402l-.015.011a.535.535 0 0 0-.32-.955h-.001a2.751 2.751 0 0 1-2.188-1.153l-.006-.008c.252-.017.501-.058.742-.124a.535.535 0 0 0-.033-1.039l-.003-.001a2.75 2.75 0 0 1-2.076-1.886l-.005-.019c.266.068.539.107.812.115h.006c.24 0 .444-.153.519-.368l.001-.004a.53.53 0 0 0-.21-.606l-.002-.001a2.747 2.747 0 0 1-1.139-2.964l-.004.019a9.85 9.85 0 0 0 6.544 2.971l.025.001h.022a.542.542 0 0 0 .414-.191l.001-.001a.533.533 0 0 0 .11-.467l.001.004a2.751 2.751 0 0 1 4.68-2.508l.001.001a.534.534 0 0 0 .498.158l-.003.001c.165-.033.328-.071.489-.114a2.414 2.414 0 0 1-.214.144l-.012.006a.536.536 0 0 0 .339.989h-.002l.182-.023c-.1.082-.204.161-.309.237z"/>
    </symbol>
    <symbol id="icon-linkedin" viewBox="0 0 31 32">
      <path d="M18.924 11.951h-.05c-.542 0-1.051.144-1.49.396l.015-.008c-.061-.224-.262-.388-.498-.339h-2.894c-.286-.049-.518.19-.43.5v10.999c-.087.281.143.521.43.5h2.894c.286.019.518-.22.518-.515v-6.648c-.002-.003-.013-.32.182-.54.156-.175.425-.262.796-.262.619 0 .894.26.997.844v6.607c-.102.295.13.535.417.515h3.049c.286.019.518-.22.415-.515v-6.828c.102-3.471-2.296-4.706-4.35-4.706zM22.34 23h-2.013v-6.122c0-1.18-.74-1.912-1.93-1.912-.673 0-1.197.204-1.557.606-.501.559-.463 1.27-.355 1.427v6h-1.961v-9.98h1.858v.335a.542.542 0 0 0 .286.48l.003.001a.502.502 0 0 0 .547-.059l-.001.001.136-.109c.393-.319.799-.65 1.573-.65.801 0 3.416.263 3.416 3.636v6.342zM10.667 6.966c-1.088 0-1.972.912-1.972 2.033s.884 2.035 1.972 2.035 1.972-.912 1.972-2.034-.884-2.033-1.972-2.033zm0 3c-.516 0-.937-.433-.937-.966s.421-.966.937-.966.937.434.937.966-.421.966-.937.966zm1.384 1.985H9.173c-.286 0-.518.239-.446.549v10.999c-.072.281.16.521.446.5h2.878c.286.019.518-.22.518-.515V12.482a.543.543 0 0 0-.151-.376.508.508 0 0 0-.366-.155zm-.415 11.048H9.691V13.02h1.945V23z"/>
      <path d="M15.515-.034C6.941-.034-.033 7.158-.033 16s6.974 16.034 15.548 16.034S31.063 24.842 31.063 16 24.089-.034 15.515-.034zm0 31C7.513 30.966 1.003 24.252 1.003 16S7.514 1.034 15.515 1.034c8.002 0 14.512 6.714 14.512 14.966s-6.511 14.966-14.512 14.966z"/>
    </symbol>
    <symbol id="icon-facebook" viewBox="0 0 32 32">
      <path d="M25.36 6.633a13.198 13.198 0 0 0-9.359-3.874c-7.312 0-13.24 5.928-13.24 13.24V16c0 7.313 5.927 13.242 13.239 13.246a13.297 13.297 0 0 0 5.066-1 13.655 13.655 0 0 0 4.294-2.881l-.001.001c2.397-2.397 3.88-5.709 3.88-9.367s-1.483-6.969-3.88-9.367zm-.934 17.787a11.86 11.86 0 0 1-7.037 3.421l-.056.005v-8.747h2.506a1.334 1.334 0 0 0 .002-2.666h-2.508V12.78c0-.736.597-1.333 1.333-1.334H20.3a1.334 1.334 0 1 0 0-2.668h-.036.002-2.267a3.333 3.333 0 0 0-3.333 3.333v4.32h-2.493a1.333 1.333 0 0 0 0 2.666h2.493v8.747c-5.962-.7-10.544-5.723-10.544-11.815 0-6.568 5.324-11.892 11.892-11.892s11.892 5.324 11.892 11.892c0 1.631-.328 3.185-.922 4.6l.029-.078a12.126 12.126 0 0 1-2.586 3.866z"/>
    </symbol>
    <symbol id="icon-instagram" viewBox="0 0 33 32">
      <path d="M16.431 9.836h-.014c-1.735 0-3.31.689-4.466 1.808l.002-.002A6.064 6.064 0 0 0 10.099 16v.001c0 1.635.667 3.203 1.854 4.36a6.398 6.398 0 0 0 4.464 1.806h.014-.001.014c1.735 0 3.31-.689 4.466-1.808l-.002.002a6.065 6.065 0 0 0 1.855-4.358v-.001a6.068 6.068 0 0 0-1.853-4.358l-.002-.002a6.398 6.398 0 0 0-4.464-1.806h-.014.001zm0 10.169h-.009a4.158 4.158 0 0 1-2.901-1.174l.001.001A3.946 3.946 0 0 1 12.317 16a3.94 3.94 0 0 1 1.204-2.831l.001-.001a4.153 4.153 0 0 1 2.899-1.173h.01c1.091 0 2.138.422 2.909 1.173A3.946 3.946 0 0 1 20.545 16a3.937 3.937 0 0 1-1.204 2.831l-.001.001a4.153 4.153 0 0 1-2.899 1.173h-.011.001zm6.583-8.958c.815 0 1.475-.643 1.475-1.437s-.661-1.437-1.476-1.437-1.475.643-1.475 1.437.661 1.437 1.475 1.437z"/>
      <path d="M28.117 8.148a6.174 6.174 0 0 0-1.42-2.124l-.001-.001a6.31 6.31 0 0 0-2.14-1.369l-.043-.015a9.056 9.056 0 0 0-2.984-.56h-.01c-1.319-.056-1.737-.072-5.081-.072s-3.773 0-5.08.072a9.184 9.184 0 0 0-3.054.58l.063-.021a6.347 6.347 0 0 0-2.185 1.385l.002-.001a6.152 6.152 0 0 0-1.407 2.085l-.015.041a8.41 8.41 0 0 0-.573 2.906v.009c-.059 1.283-.077 1.69-.077 4.947s0 3.671.077 4.947a8.571 8.571 0 0 0 .594 2.974l-.02-.058c.337.831.82 1.538 1.422 2.124l.001.001a6.334 6.334 0 0 0 2.14 1.369l.043.015a9.015 9.015 0 0 0 2.978.6h.015c1.318.056 1.736.073 5.079.073s3.773 0 5.081-.073a9.247 9.247 0 0 0 3.056-.58l-.064.021a6.364 6.364 0 0 0 2.185-1.386l-.002.001a6.154 6.154 0 0 0 1.408-2.085l.015-.041a8.387 8.387 0 0 0 .573-2.906v-.009c.059-1.283.077-1.689.077-4.947s0-3.671-.077-4.946a8.542 8.542 0 0 0-.596-3.014l.02.058zm-1.668 12.709a6.56 6.56 0 0 1-.441 2.296l.015-.045a3.987 3.987 0 0 1-.924 1.381l-.001.001a4.1 4.1 0 0 1-1.392.89l-.028.009a6.837 6.837 0 0 1-2.282.414h-.005c-1.301.059-1.668.073-5.004.073-3.338 0-3.679 0-5.005-.073a6.949 6.949 0 0 1-2.333-.431l.048.016a4.119 4.119 0 0 1-1.428-.897l.001.001a3.975 3.975 0 0 1-.928-1.384 6.45 6.45 0 0 1-.425-2.219v-.006c-.06-1.267-.073-1.624-.073-4.873s0-3.581.073-4.873a6.517 6.517 0 0 1 .441-2.293l-.015.045a4.062 4.062 0 0 1 2.326-2.274l.028-.009a6.876 6.876 0 0 1 2.28-.415h.005c1.303-.056 1.668-.073 5.005-.073s3.68 0 5.004.074c.781.009 1.554.15 2.287.415.553.21 1.025.516 1.421.9l-.001-.001c.404.394.718.865.925 1.383.256.659.411 1.422.425 2.219v.006c.059 1.268.074 1.623.074 4.873 0 3.248 0 3.597-.06 4.872h-.015v-.002z"/>
    </symbol>
  </defs>
</svg>
